<?xml version="1.0" encoding="iso-8859-1"?>
<!-- Generator: Adobe Illustrator 19.0.0, SVG Export Plug-In . SVG Version: 6.00 Build 0)  -->
<svg version="1.1" id="Capa_1" xmlns="http://www.w3.org/2000/svg" xmlns:xlink="http://www.w3.org/1999/xlink" x="0px" y="0px"
	 viewBox="0 0 512 512" style="fill: rgb(22, 61, 92); enable-background:new 0 0 512 512;" xml:space="preserve">
<g>
	<g>
		<rect x="80" y="96.5" width="16" height="15"/>
	</g>
</g>
<g>
	<g>
		<rect x="112" y="96.5" width="16" height="15"/>
	</g>
</g>
<g>
	<g>
		<rect x="144" y="96.5" width="16" height="15"/>
	</g>
</g>
<g>
	<g>
		<rect x="216" y="192.5" width="16" height="15"/>
	</g>
</g>
<g>
	<g>
		<rect x="248" y="192.5" width="16" height="15"/>
	</g>
</g>
<g>
	<g>
		<rect x="280" y="192.5" width="16" height="15"/>
	</g>
</g>
<g>
	<g>
		<path d="M80,152.5v95h351v-95H80z M416,232.5H95v-65h321V232.5z"/>
	</g>
</g>
<g>
	<g>
		<path d="M336,264.5v47h95v-47H336z M416,296.5h-65v-17h65V296.5z"/>
	</g>
</g>
<g>
	<g>
		<path d="M208,264.5v47h95v-47H208z M288,296.5h-65v-17h65V296.5z"/>
	</g>
</g>
<g>
	<g>
		<rect x="208" y="392.5" width="16" height="15"/>
	</g>
</g>
<g>
	<g>
		<rect x="240" y="392.5" width="16" height="15"/>
	</g>
</g>
<g>
	<g>
		<rect x="208" y="328.5" width="96" height="15"/>
	</g>
</g>
<g>
	<g>
		<rect x="336" y="328.5" width="96" height="15"/>
	</g>
</g>
<g>
	<g>
		<rect x="208" y="360.5" width="96" height="15"/>
	</g>
</g>
<g>
	<g>
		<rect x="336" y="360.5" width="96" height="15"/>
	</g>
</g>
<g>
	<g>
		<rect x="336" y="392.5" width="16" height="15"/>
	</g>
</g>
<g>
	<g>
		<rect x="368" y="392.5" width="16" height="15"/>
	</g>
</g>
<g>
	<g>
		<path d="M95,424.5v-145h65v128h15v-143H80v160H63v-289h385v272h15v-335H48v352H0v15h512v-15H95z M63,87.5h385v33H63V87.5z"/>
	</g>
</g>
<g>
	<g>
		<rect x="112" y="296.5" width="16" height="15"/>
	</g>
</g>
<g>
	<g>
		<rect x="112" y="328.5" width="16" height="15"/>
	</g>
</g>
<g>
	<g>
		<rect x="112" y="360.5" width="16" height="15"/>
	</g>
</g>
<g>
	<g>
		<rect x="112" y="392.5" width="16" height="15"/>
	</g>
</g>
<g>
</g>
<g>
</g>
<g>
</g>
<g>
</g>
<g>
</g>
<g>
</g>
<g>
</g>
<g>
</g>
<g>
</g>
<g>
</g>
<g>
</g>
<g>
</g>
<g>
</g>
<g>
</g>
<g>
</g>
</svg>
